# Blender v3.2.0 OBJ File: ''
# www.blender.org
mtllib BlockWithGap.mtl
o Cube
v 3.719045 1.000000 0.000000
v 3.719045 -1.000000 0.000000
v 3.719045 1.000000 4.183029
v 3.719045 -1.000000 4.183029
v -2.476770 1.000000 0.000000
v -2.476770 -1.000000 0.000000
v -2.476770 1.000000 4.183029
v -2.476770 -1.000000 4.183029
v -2.476770 -1.000000 2.175909
v 0.000000 -1.000000 0.000000
v 3.719045 0.000000 0.000000
v -2.476770 0.000000 4.183029
v 3.719045 0.000000 4.183029
v -2.476770 0.000000 0.000000
v 0.000000 1.000000 4.183029
v 3.719045 1.000000 2.175909
v 0.000000 -1.000000 4.183029
v -2.476770 1.000000 2.175909
v 0.000000 1.000000 0.000000
v 3.719045 -1.000000 2.175909
v 0.000000 0.000000 0.000000
v 3.719045 0.000000 2.175909
v 0.000000 -1.000000 2.175909
v -2.476770 0.000000 2.175909
v 0.000000 0.000000 4.183029
v 0.000000 1.000000 2.175909
v 0.000000 1.098688 3.227909
v -1.000000 1.098688 3.227909
v 3.719045 1.098688 2.227909
v 3.719045 1.098688 3.227909
v -1.000000 1.098688 2.227909
v 0.000000 1.098688 2.227909
v 3.719045 1.000000 -4.183029
v 3.719045 -1.000000 -4.183029
v -2.476770 1.000000 -4.183029
v -2.476770 -1.000000 -4.183029
v -2.476770 -1.000000 -2.175909
v -2.476770 0.000000 -4.183029
v 3.719045 0.000000 -4.183029
v 0.000000 1.000000 -4.183029
v 3.719045 1.000000 -2.175909
v 0.000000 -1.000000 -4.183029
v -2.476770 1.000000 -2.175909
v 3.719045 -1.000000 -2.175909
v 3.719045 0.000000 -2.175909
v 0.000000 -1.000000 -2.175909
v -2.476770 0.000000 -2.175909
v 0.000000 0.000000 -4.183029
v 0.000000 1.000000 -2.175909
v 0.000000 1.098688 -3.227909
v -1.000000 1.098688 -3.227909
v 3.719045 1.098688 -2.227909
v 3.719045 1.098688 -3.227909
v -1.000000 1.098688 -2.227909
v 0.000000 1.098688 -2.227909
vt 0.625000 0.125000
vt 0.625000 0.000000
vt 0.625000 0.000000
vt 0.625000 0.125000
vt 0.500000 0.875000
vt 0.625000 0.875000
vt 0.625000 1.000000
vt 0.500000 1.000000
vt 0.500000 0.125000
vt 0.625000 0.250000
vt 0.500000 0.250000
vt 0.250000 0.625000
vt 0.375000 0.625000
vt 0.375000 0.750000
vt 0.250000 0.750000
vt 0.500000 0.625000
vt 0.625000 0.625000
vt 0.625000 0.750000
vt 0.500000 0.750000
vt 0.500000 0.375000
vt 0.625000 0.375000
vt 0.625000 0.500000
vt 0.500000 0.500000
vt 0.375000 0.375000
vt 0.375000 0.500000
vt 0.375000 0.250000
vt 0.125000 0.625000
vt 0.125000 0.750000
vt 0.125000 0.500000
vt 0.250000 0.500000
vt 0.375000 0.125000
vt 0.375000 0.000000
vt 0.500000 0.000000
vt 0.375000 0.875000
vt 0.375000 1.000000
vt 0.750000 0.500000
vt 0.750000 0.625000
vt 0.875000 0.500000
vt 0.875000 0.625000
vt 0.750000 0.625000
vt 0.875000 0.625000
vt 0.875000 0.750000
vt 0.750000 0.750000
vt 0.625000 0.625000
vt 0.625000 0.750000
vt 0.625000 0.875000
vt 0.625000 1.000000
vt 0.625000 0.125000
vt 0.625000 0.125000
vt 0.625000 0.000000
vt 0.625000 0.000000
vt 0.500000 0.875000
vt 0.500000 1.000000
vt 0.625000 1.000000
vt 0.625000 0.875000
vt 0.500000 0.125000
vt 0.250000 0.625000
vt 0.250000 0.750000
vt 0.375000 0.750000
vt 0.375000 0.625000
vt 0.500000 0.625000
vt 0.500000 0.750000
vt 0.625000 0.750000
vt 0.625000 0.625000
vt 0.125000 0.625000
vt 0.125000 0.750000
vt 0.375000 0.125000
vt 0.375000 0.000000
vt 0.500000 0.000000
vt 0.375000 0.875000
vt 0.375000 1.000000
vt 0.750000 0.625000
vt 0.875000 0.625000
vt 0.750000 0.625000
vt 0.750000 0.750000
vt 0.875000 0.750000
vt 0.875000 0.625000
vt 0.625000 0.625000
vt 0.625000 0.750000
vt 0.625000 1.000000
vt 0.625000 0.875000
vn -0.0667 0.9978 0.0000
vn 0.0000 0.0000 1.0000
vn -1.0000 0.0000 0.0000
vn 0.0000 -1.0000 0.0000
vn 1.0000 0.0000 0.0000
vn 0.0000 0.0000 -1.0000
vn 0.0000 1.0000 0.0000
vn 0.0000 0.9947 0.1028
vn 0.0000 0.9947 -0.1028
usemtl Material
s off
f 18/1/1 7/2/1 28/3/1 31/4/1
f 25/5/2 15/6/2 7/7/2 12/8/2
f 24/9/3 18/1/3 5/10/3 14/11/3
f 23/12/4 20/13/4 4/14/4 17/15/4
f 22/16/5 16/17/5 3/18/5 13/19/5
f 21/20/6 19/21/6 1/22/6 11/23/6
f 10/24/6 21/20/6 11/23/6 2/25/6
f 6/26/6 14/11/6 21/20/6 10/24/6
f 14/11/6 5/10/6 19/21/6 21/20/6
f 20/13/5 22/16/5 13/19/5 4/14/5
f 2/25/5 11/23/5 22/16/5 20/13/5
f 11/23/5 1/22/5 16/17/5 22/16/5
f 9/27/4 23/12/4 17/15/4 8/28/4
f 6/29/4 10/30/4 23/12/4 9/27/4
f 10/30/4 2/25/4 20/13/4 23/12/4
f 9/31/3 24/9/3 14/11/3 6/26/3
f 8/32/3 12/33/3 24/9/3 9/31/3
f 12/33/3 7/2/3 18/1/3 24/9/3
f 17/34/2 25/5/2 12/8/2 8/35/2
f 4/14/2 13/19/2 25/5/2 17/34/2
f 13/19/2 3/18/2 15/6/2 25/5/2
f 1/22/7 19/36/7 26/37/7 16/17/7
f 19/36/7 5/38/7 18/39/7 26/37/7
f 32/40/7 31/41/7 28/42/7 27/43/7
f 29/44/7 32/40/7 27/43/7 30/45/7
f 7/7/8 15/6/8 27/46/8 28/47/8
f 3/18/5 16/17/5 29/44/5 30/45/5
f 15/6/8 3/18/8 30/45/8 27/46/8
f 43/48/1 54/49/1 51/50/1 35/51/1
f 48/52/6 38/53/6 35/54/6 40/55/6
f 47/56/3 14/11/3 5/10/3 43/48/3
f 46/57/4 42/58/4 34/59/4 44/60/4
f 45/61/5 39/62/5 33/63/5 41/64/5
f 44/60/5 34/59/5 39/62/5 45/61/5
f 2/25/5 44/60/5 45/61/5 11/23/5
f 11/23/5 45/61/5 41/64/5 1/22/5
f 37/65/4 36/66/4 42/58/4 46/57/4
f 6/29/4 37/65/4 46/57/4 10/30/4
f 10/30/4 46/57/4 44/60/4 2/25/4
f 37/67/3 6/26/3 14/11/3 47/56/3
f 36/68/3 37/67/3 47/56/3 38/69/3
f 38/69/3 47/56/3 43/48/3 35/51/3
f 42/70/6 36/71/6 38/53/6 48/52/6
f 34/59/6 42/70/6 48/52/6 39/62/6
f 39/62/6 48/52/6 40/55/6 33/63/6
f 1/22/7 41/64/7 49/72/7 19/36/7
f 19/36/7 49/72/7 43/73/7 5/38/7
f 55/74/7 50/75/7 51/76/7 54/77/7
f 52/78/7 53/79/7 50/75/7 55/74/7
f 35/54/9 51/80/9 50/81/9 40/55/9
f 33/63/5 53/79/5 52/78/5 41/64/5
f 40/55/9 50/81/9 53/79/9 33/63/9
